<?xml version="1.0" encoding="UTF-8"?>
<svg width="152px" height="152px" viewBox="0 0 152 152" version="1.1" xmlns="http://www.w3.org/2000/svg" xmlns:xlink="http://www.w3.org/1999/xlink">
    <g id="Page-1" stroke="none" stroke-width="1" fill="none" fill-rule="evenodd">
        <g id="Group" fill="#F3C652">
            <path d="M106.63,76.09 C106.63,93.027 92.9,106.757 75.97,106.757 C59.03,106.757 45.3,93.027 45.3,76.09 C45.3,59.154 59.03,45.424 75.97,45.424 C92.9,45.424 106.63,59.154 106.63,76.09" id="Fill-4"></path>
            <path d="M75.97,33.773 C73.94,33.773 72.29,32.127 72.29,30.097 L72.29,3.943 C72.29,1.913 73.94,0.267 75.97,0.267 C78,0.267 79.64,1.913 79.64,3.943 L79.64,30.097 C79.64,32.127 78,33.773 75.97,33.773" id="Fill-5"></path>
            <path d="M75.97,151.914 C73.94,151.914 72.29,150.268 72.29,148.238 L72.29,122.084 C72.29,120.054 73.94,118.408 75.97,118.408 C78,118.408 79.64,120.054 79.64,122.084 L79.64,148.238 C79.64,150.268 78,151.914 75.97,151.914" id="Fill-6"></path>
            <path d="M105.89,46.167 C104.45,44.732 104.45,42.404 105.89,40.969 L124.38,22.475 C125.82,21.04 128.15,21.04 129.58,22.475 C131.02,23.911 131.02,26.238 129.58,27.674 L111.09,46.167 C109.65,47.604 107.33,47.604 105.89,46.167" id="Fill-7"></path>
            <path d="M22.352,129.706 C20.916,128.27 20.916,125.942 22.352,124.507 L40.845,106.013 C42.28,104.578 44.608,104.578 46.044,106.013 C47.479,107.449 47.479,109.776 46.044,111.212 L27.55,129.706 C26.114,131.142 23.787,131.142 22.352,129.706" id="Fill-8"></path>
            <path d="M118.28,76.09 C118.28,74.06 119.93,72.414 121.96,72.414 L148.11,72.414 C150.14,72.414 151.79,74.06 151.79,76.09 C151.79,78.121 150.14,79.767 148.11,79.767 L121.96,79.767 C119.93,79.767 118.28,78.121 118.28,76.09" id="Fill-9"></path>
            <path d="M0.143,76.09 C0.143,74.06 1.789,72.414 3.819,72.414 L29.974,72.414 C32.004,72.414 33.649,74.06 33.649,76.09 C33.649,78.121 32.004,79.767 29.974,79.767 L3.819,79.767 C1.789,79.767 0.143,78.121 0.143,76.09" id="Fill-10"></path>
            <path d="M105.89,106.013 C107.33,104.578 109.65,104.578 111.09,106.013 L129.58,124.507 C131.02,125.942 131.02,128.27 129.58,129.706 C128.15,131.142 125.82,131.142 124.38,129.706 L105.89,111.212 C104.45,109.776 104.45,107.449 105.89,106.013" id="Fill-11"></path>
            <path d="M22.352,22.475 C23.787,21.04 26.114,21.04 27.55,22.475 L46.044,40.969 C47.479,42.404 47.479,44.732 46.044,46.167 C44.608,47.604 42.28,47.604 40.845,46.167 L22.352,27.674 C20.916,26.238 20.916,23.911 22.352,22.475" id="Fill-12"></path>
        </g>
    </g>
</svg>